<svg width="296" height="50" viewBox="0 0 296 50" fill="none" xmlns="http://www.w3.org/2000/svg">
<g clip-path="url(#clip0_18_2)">
<path d="M49.1971 21.2354V37.1223H43.9626V32.6754C39.814 40.2291 26.2458 38.6209 26.2458 29.7758C26.2458 17.8241 43.9626 24.6589 43.9626 19.7856C43.9626 16.6301 40.961 15.3387 38.1546 15.3387C35.5678 15.3387 32.615 15.9113 31.9317 19.9927L27.2707 19.1155C28.1492 13.0117 33.1275 11.0502 38.1546 11.0989C43.6941 11.1477 49.1849 13.4747 49.1849 21.2354H49.1971ZM43.9626 25.9381V23.6111C40.6925 25.7797 31.7365 23.4527 31.7365 29.7637C31.7365 36.0746 43.9626 36.0258 43.9626 25.9381Z" fill="#F1F1F1"/>
<path d="M57.4332 37.1223H52.3085V0.901581H57.4332V37.1223Z" fill="#F1F1F1"/>
<path d="M82.6174 37.1223H77.4317V31.384C75.516 35.6725 72.1972 37.5366 68.1584 37.5366C60.8985 37.5366 60.8008 30.7018 60.8008 25.8407V11.2573H65.9865V25.8528C65.9865 29.6296 66.8163 33.2481 70.0741 33.2481C71.7823 33.2481 77.4317 32.8338 77.4317 20.9308V11.2573H82.6174V37.1223Z" fill="#F1F1F1"/>
<path d="M110.913 36.7568C110.913 45.7115 104.751 50.0488 97.54 50C92.3055 49.9513 87.9007 47.4172 85.8874 42.1418L90.3899 40.4849C91.6832 44.1033 94.3798 45.6628 97.54 45.7115C102.103 45.7603 105.727 43.0678 105.727 36.7568V32.6755C103.86 35.9893 100.7 37.4391 96.6127 37.4391C89.7676 37.4391 85.314 33.1506 85.314 24.1959C85.314 15.2412 89.7676 11.0015 96.6127 10.9527C100.7 10.904 103.86 12.4026 105.727 15.7164V11.2695H110.913V36.7568ZM105.727 24.1837C105.727 17.2515 102.103 14.9245 97.9549 14.9732C93.3427 15.022 90.3899 18.1287 90.3899 24.1837C90.3899 30.2388 93.3427 33.3943 97.9549 33.3943C102.103 33.3943 105.727 31.116 105.727 24.1837Z" fill="#F1F1F1"/>
<path d="M136.561 21.2354V37.1223H131.326V32.6754C127.178 40.2291 113.61 38.6209 113.61 29.7758C113.61 17.8241 131.326 24.6589 131.326 19.7856C131.326 16.6301 128.325 15.3387 125.518 15.3387C122.932 15.3387 119.979 15.9113 119.296 19.9927L114.635 19.1155C115.513 13.0117 120.491 11.0502 125.518 11.0989C131.058 11.1477 136.549 13.4747 136.549 21.2354H136.561ZM131.326 25.9381V23.6111C128.056 25.7797 119.1 23.4527 119.1 29.7637C119.1 36.0746 131.326 36.0258 131.326 25.9381Z" fill="#F1F1F1"/>
<path d="M157.133 27.5463L162.111 26.7178C162.526 31.4815 166.931 33.0288 170.713 33.0288C174.496 33.0288 178.998 31.4815 178.998 26.1452C178.998 15.8017 157.914 25.4752 157.914 10.7334C157.914 4.37379 163.1 0.280226 170.555 0.389875C176.875 0.487341 181.744 3.75245 182.573 9.13744L177.754 10.0146C177.29 6.03071 173.922 4.42253 170.555 4.42253C166.98 4.42253 163.087 5.9698 163.087 10.7334C163.087 19.9927 184.172 10.3679 184.172 26.1452C184.172 30.9089 181.524 37.366 170.701 37.366C160.44 37.366 157.597 32.0907 157.121 27.5341L157.133 27.5463Z" fill="#F1F1F1"/>
<path d="M194.177 30.4947C194.177 32.0419 195.007 32.4074 196.251 32.4074H198.423V37.1101H196.251C189.821 37.1101 189.052 35.5629 189.052 30.4825V15.0341H184.806V10.9527H189.052V6.09163L194.177 4.02048V10.9527H198.423V15.0341H194.177V30.5068V30.4947Z" fill="#F1F1F1"/>
<path d="M222.936 37.1223H217.751V31.384C215.835 35.6725 212.516 37.5366 208.478 37.5366C201.23 37.5366 201.12 30.7018 201.12 25.8407V11.2573H206.306V25.8528C206.306 29.6296 207.135 33.2481 210.393 33.2481C212.101 33.2481 217.751 32.8338 217.751 20.9308V11.2573H222.936V37.1223Z" fill="#F1F1F1"/>
<path d="M251.232 37.1223H246.046V32.6755C244.18 35.9893 241.019 37.4391 236.932 37.4391C230.087 37.4391 225.633 33.1506 225.633 24.1959C225.633 15.2412 230.087 11.0015 236.932 10.9527C241.032 10.904 244.192 12.4026 246.046 15.7164V0.901581H251.232V37.1223ZM246.046 24.1837C246.046 17.2515 242.423 14.9245 238.274 14.9732C233.662 15.022 230.709 18.1287 230.709 24.1837C230.709 30.2388 233.662 33.3943 238.274 33.3943C242.423 33.3943 246.046 31.116 246.046 24.1837Z" fill="#F1F1F1"/>
<path d="M259.676 0.901581V6.65207H254.344V0.901581H259.676ZM259.578 11.2451H254.453V37.1223H259.578V11.2573V11.2451Z" fill="#F1F1F1"/>
<path d="M275.123 37.4269C268.278 37.4269 262.372 33.1384 262.372 24.1837C262.372 15.2291 268.278 10.8918 275.123 10.9406C281.968 10.9893 287.874 15.2291 287.874 24.1837C287.874 33.1384 281.968 37.4269 275.123 37.4269ZM275.123 15.2291C270.926 15.1803 267.302 17.8728 267.302 24.1837C267.302 30.4947 270.926 33.1384 275.123 33.1384C279.32 33.1384 282.944 30.4947 282.944 24.1837C282.944 17.8728 279.32 15.29 275.123 15.2291Z" fill="#F1F1F1"/>
<path d="M296 4.78801C296 6.93226 294.243 8.68664 292.095 8.68664C289.948 8.68664 288.191 6.93226 288.191 4.78801C288.191 2.64376 289.936 0.889374 292.095 0.889374C294.255 0.889374 296 2.64376 296 4.78801ZM295.329 4.78801C295.329 3.00926 293.877 1.55945 292.095 1.55945C290.314 1.55945 288.862 3.00926 288.862 4.78801C288.862 6.56676 290.314 8.01657 292.095 8.01657C293.877 8.01657 295.329 6.56676 295.329 4.78801ZM292.876 5.36062L293.779 6.90789H293.133L292.327 5.45809H291.229V6.90789H290.631V2.64376H292.181C293.157 2.64376 293.73 3.16764 293.73 4.0692C293.73 4.71491 293.425 5.16569 292.876 5.3728V5.36062ZM292.181 4.95857C292.803 4.95857 293.133 4.58089 293.133 4.05701C293.133 3.53314 292.803 3.13109 292.181 3.13109H291.229V4.95857H292.181Z" fill="#F1F1F1"/>
<path d="M3.6971 1.14522C5.01488 0.865007 6.91834 0.694442 9.40748 0.633525C12.3725 0.560426 14.825 0.633525 16.7651 0.889373C20.0473 1.35234 22.4877 2.46101 24.1105 4.22758C25.8553 6.05507 26.7582 8.51608 26.8436 11.5863C26.9535 15.6311 25.7943 18.7744 23.3662 21.0161C22.3656 21.9542 22.0118 22.4172 22.3168 22.405C22.3778 22.405 22.9879 22.7826 24.1593 23.538C25.8797 24.7563 27.2951 26.5229 28.3811 28.8255C29.467 31.1282 30.0527 33.577 30.1137 36.172C30.2357 40.826 28.7837 44.1155 25.7455 46.077C22.8903 47.8436 18.7906 48.7939 13.4706 48.9279C8.33373 49.0619 5.02708 47.7826 3.56289 45.1023C2.09869 42.3611 1.13476 31.9688 0.658891 13.9133C0.524672 8.60136 0.610084 5.23879 0.939529 3.8499C1.26897 2.44883 2.1841 1.54727 3.6849 1.14522H3.6971ZM15.8744 11.8908C15.2399 10.7578 14.6054 10.6847 13.9587 11.6715C13.6048 12.2198 13.4462 12.8655 13.4584 13.5843C13.495 14.9732 13.9709 15.6555 14.8738 15.6311C15.3009 15.6311 15.6425 15.3874 15.8988 14.9245C16.155 14.4615 16.277 13.9376 16.2648 13.3285C16.2526 12.7802 16.1184 12.3051 15.8622 11.8908H15.8744ZM17.8632 32.4196C17.485 32.0663 17.1189 31.8957 16.7651 31.9079C16.277 31.9201 15.8988 32.1881 15.6059 32.712C15.3131 33.2359 15.1789 33.7963 15.1911 34.3933C15.2155 35.1121 15.4107 35.6603 15.7767 36.0136C16.216 36.4279 16.6431 36.6228 17.0579 36.6106C18.0218 36.5863 18.4855 35.7578 18.4489 34.1252C18.4245 33.3455 18.2293 32.7729 17.8632 32.4196Z" stroke="#F1F1F1" stroke-miterlimit="10"/>
</g>
<defs>
<clipPath id="clip0_18_2">
<rect width="296" height="50" fill="white"/>
</clipPath>
</defs>
</svg>
