<?xml version="1.0" encoding="UTF-8"?>
<svg id="Capa_2" data-name="Capa 2" xmlns="http://www.w3.org/2000/svg" viewBox="0 0 242.59 41.04">
  <defs>
    <style>
      .cls-1 {
        fill: #1d1d1b;
      }

      .cls-2 {
        fill: none;
        stroke: #1d1d1b;
        stroke-miterlimit: 10;
      }
    </style>
  </defs>
  <g id="Capa_1-2" data-name="Capa 1">
    <g>
      <path class="cls-1" d="M40.32,17.43v13.04h-4.29v-3.65c-3.4,6.2-14.52,4.88-14.52-2.38,0-9.81,14.52-4.2,14.52-8.2,0-2.59-2.46-3.65-4.76-3.65-2.12,0-4.54,.47-5.1,3.82l-3.82-.72c.72-5.01,4.8-6.62,8.92-6.58,4.54,.04,9.04,1.95,9.04,8.32Zm-4.29,3.86v-1.91c-2.68,1.78-10.02-.13-10.02,5.05s10.02,5.14,10.02-3.14Z"/>
      <path class="cls-1" d="M47.07,30.47h-4.2V.74h4.2V30.47Z"/>
      <path class="cls-1" d="M67.71,30.47h-4.25v-4.71c-1.57,3.52-4.29,5.05-7.6,5.05-5.95,0-6.03-5.61-6.03-9.6V9.24h4.25v11.98c0,3.1,.68,6.07,3.35,6.07,1.4,0,6.03-.34,6.03-10.11v-7.94h4.25V30.47Z"/>
      <path class="cls-1" d="M90.9,30.17c0,7.35-5.05,10.91-10.96,10.87-4.29-.04-7.9-2.12-9.55-6.45l3.69-1.36c1.06,2.97,3.27,4.25,5.86,4.29,3.74,.04,6.71-2.17,6.71-7.35v-3.35c-1.53,2.72-4.12,3.91-7.47,3.91-5.61,0-9.26-3.52-9.26-10.87s3.65-10.83,9.26-10.87c3.35-.04,5.94,1.19,7.47,3.91v-3.65h4.25V30.17Zm-4.25-10.32c0-5.69-2.97-7.6-6.37-7.56-3.78,.04-6.2,2.59-6.2,7.56s2.42,7.56,6.2,7.56c3.4,0,6.37-1.87,6.37-7.56Z"/>
      <path class="cls-1" d="M111.92,17.43v13.04h-4.29v-3.65c-3.4,6.2-14.52,4.88-14.52-2.38,0-9.81,14.52-4.2,14.52-8.2,0-2.59-2.46-3.65-4.76-3.65-2.12,0-4.54,.47-5.1,3.82l-3.82-.72c.72-5.01,4.8-6.62,8.92-6.58,4.54,.04,9.04,1.95,9.04,8.32Zm-4.29,3.86v-1.91c-2.68,1.78-10.02-.13-10.02,5.05s10.02,5.14,10.02-3.14Z"/>
      <path class="cls-1" d="M128.78,22.61l4.08-.68c.34,3.91,3.95,5.18,7.05,5.18s6.79-1.27,6.79-5.65c0-8.49-17.28-.55-17.28-12.65,0-5.22,4.25-8.58,10.36-8.49,5.18,.08,9.17,2.76,9.85,7.18l-3.95,.72c-.38-3.27-3.14-4.59-5.9-4.59-2.93,0-6.12,1.27-6.12,5.18,0,7.6,17.28-.3,17.28,12.65,0,3.91-2.17,9.21-11.04,9.21-8.41,0-10.74-4.33-11.13-8.07Z"/>
      <path class="cls-1" d="M159.14,25.03c0,1.27,.68,1.57,1.7,1.57h1.78v3.86h-1.78c-5.27,0-5.9-1.27-5.9-5.44V12.34h-3.48v-3.35h3.48v-3.99l4.2-1.7v5.69h3.48v3.35h-3.48v12.7Z"/>
      <path class="cls-1" d="M182.71,30.47h-4.25v-4.71c-1.57,3.52-4.29,5.05-7.6,5.05-5.94,0-6.03-5.61-6.03-9.6V9.24h4.25v11.98c0,3.1,.68,6.07,3.35,6.07,1.4,0,6.03-.34,6.03-10.11v-7.94h4.25V30.47Z"/>
      <path class="cls-1" d="M205.9,30.47h-4.25v-3.65c-1.53,2.72-4.12,3.91-7.47,3.91-5.61,0-9.26-3.52-9.26-10.87s3.65-10.83,9.26-10.87c3.36-.04,5.95,1.19,7.47,3.91V.74h4.25V30.47Zm-4.25-10.62c0-5.69-2.97-7.6-6.37-7.56-3.78,.04-6.2,2.59-6.2,7.56s2.42,7.56,6.2,7.56c3.4,0,6.37-1.87,6.37-7.56Z"/>
      <path class="cls-1" d="M212.82,.74V5.46h-4.37V.74h4.37Zm-.08,8.49h-4.2V30.47h4.2V9.24Z"/>
      <path class="cls-1" d="M225.48,30.72c-5.61,0-10.45-3.52-10.45-10.87s4.84-10.91,10.45-10.87,10.45,3.52,10.45,10.87-4.84,10.87-10.45,10.87Zm0-18.22c-3.44-.04-6.41,2.17-6.41,7.35s2.97,7.35,6.41,7.35,6.41-2.17,6.41-7.35-2.97-7.3-6.41-7.35Z"/>
    </g>
    <path class="cls-1" d="M242.59,3.93c0,1.76-1.44,3.2-3.2,3.2s-3.2-1.44-3.2-3.2,1.43-3.2,3.2-3.2,3.2,1.44,3.2,3.2Zm-.55,0c0-1.46-1.19-2.65-2.65-2.65s-2.65,1.19-2.65,2.65,1.19,2.65,2.65,2.65,2.65-1.19,2.65-2.65Zm-2.01,.47l.74,1.27h-.53l-.66-1.19h-.9v1.19h-.49V2.17h1.27c.8,0,1.27,.43,1.27,1.17,0,.53-.25,.9-.7,1.07Zm-.57-.33c.51,0,.78-.31,.78-.74s-.27-.76-.78-.76h-.78v1.5h.78Z"/>
    <path class="cls-2" d="M3.03,.94c1.08-.23,2.64-.37,4.68-.42,2.43-.06,4.44,0,6.03,.21,2.69,.38,4.69,1.29,6.02,2.74,1.43,1.5,2.17,3.52,2.24,6.04,.09,3.32-.86,5.9-2.85,7.74-.82,.77-1.11,1.15-.86,1.14,.05,0,.55,.31,1.51,.93,1.41,1,2.57,2.45,3.46,4.34,.89,1.89,1.37,3.9,1.42,6.03,.1,3.82-1.09,6.52-3.58,8.13-2.34,1.45-5.7,2.23-10.06,2.34-4.21,.11-6.92-.94-8.12-3.14-1.2-2.25-1.99-10.78-2.38-25.6-.11-4.36-.04-7.12,.23-8.26,.27-1.15,1.02-1.89,2.25-2.22ZM13.01,9.76c-.52-.93-1.04-.99-1.57-.18-.29,.45-.42,.98-.41,1.57,.03,1.14,.42,1.7,1.16,1.68,.35,0,.63-.2,.84-.58s.31-.81,.3-1.31c-.01-.45-.12-.84-.33-1.18Zm1.63,16.85c-.31-.29-.61-.43-.9-.42-.4,.01-.71,.23-.95,.66-.24,.43-.35,.89-.34,1.38,.02,.59,.18,1.04,.48,1.33,.36,.34,.71,.5,1.05,.49,.79-.02,1.17-.7,1.14-2.04-.02-.64-.18-1.11-.48-1.4Z"/>
  </g>
</svg>